<svg width="41" height="40" viewBox="0 0 41 40" fill="none" xmlns="http://www.w3.org/2000/svg">
<path d="M7.16659 36.6663C6.24992 36.6663 5.46492 36.3397 4.81159 35.6863C4.15825 35.033 3.83214 34.2486 3.83325 33.333V18.833C3.83325 18.1663 4.01381 17.5552 4.37492 16.9997C4.73603 16.4441 5.23603 16.0275 5.87492 15.7497L13.1666 12.6663C13.7221 12.4441 14.2499 12.4858 14.7499 12.7913C15.2499 13.0969 15.4999 13.5552 15.4999 14.1663V14.9997L21.5416 12.583C22.0971 12.3608 22.6177 12.4163 23.1033 12.7497C23.5888 13.083 23.8321 13.5413 23.8333 14.1247V16.6663H37.1666V33.333C37.1666 34.2497 36.8399 35.0347 36.1866 35.688C35.5333 36.3413 34.7488 36.6674 33.8333 36.6663H7.16659ZM18.8333 29.9997H22.1666V23.333H18.8333V29.9997ZM12.1666 29.9997H15.4999V23.333H12.1666V29.9997ZM25.4999 29.9997H28.8333V23.333H25.4999V29.9997ZM36.8333 14.1663H29.1249L30.3333 4.79134C30.3888 4.37467 30.5766 4.02745 30.8966 3.74967C31.2166 3.4719 31.5844 3.33301 31.9999 3.33301H34.0416C34.4583 3.33301 34.8194 3.4719 35.1249 3.74967C35.4305 4.02745 35.611 4.37467 35.6666 4.79134L36.8333 14.1663Z" fill="url(#paint0_linear_340_106)" fill-opacity="0.9"/>
<defs>
<linearGradient id="paint0_linear_340_106" x1="20.4999" y1="3.33301" x2="20.4999" y2="36.6663" gradientUnits="userSpaceOnUse">
<stop stop-color="#0861DD"/>
<stop offset="1" stop-color="#0861DD" stop-opacity="0.5"/>
</linearGradient>
</defs>
</svg>
