<svg width="41" height="40" viewBox="0 0 41 40" fill="none" xmlns="http://www.w3.org/2000/svg">
<path d="M14.6668 15.0003C15.9445 15.0003 17.2429 15.1603 18.5618 15.4803C19.8806 15.8003 21.1029 16.2931 22.2284 16.9587C23.354 17.6253 24.3195 18.4587 25.1251 19.4587C25.9306 20.4587 26.4723 21.6392 26.7501 23.0003C26.8612 23.5281 26.7501 23.9931 26.4168 24.3953C26.0834 24.7976 25.6529 24.9992 25.1251 25.0003H4.20842C3.68064 25.0003 3.25009 24.7987 2.91675 24.3953C2.58342 23.992 2.47231 23.527 2.58342 23.0003C2.8612 21.6392 3.41009 20.4587 4.23009 19.4587C5.05009 18.4587 6.02231 17.6253 7.14675 16.9587C8.2712 16.292 9.4862 15.7987 10.7918 15.4787C12.0973 15.1587 13.389 14.9992 14.6668 15.0003ZM3.83342 31.667C3.3612 31.667 2.96509 31.507 2.64509 31.187C2.32509 30.867 2.16564 30.4714 2.16675 30.0003C2.16675 29.5281 2.32675 29.132 2.64675 28.812C2.96675 28.492 3.36231 28.3326 3.83342 28.3337H25.5001C25.9723 28.3337 26.3684 28.4937 26.6884 28.8137C27.0084 29.1337 27.1679 29.5292 27.1668 30.0003C27.1668 30.4726 27.0068 30.8687 26.6868 31.1887C26.3668 31.5087 25.9712 31.6681 25.5001 31.667H3.83342ZM3.83342 38.3337C3.3612 38.3337 2.96509 38.1737 2.64509 37.8537C2.32509 37.5337 2.16564 37.1381 2.16675 36.667C2.16675 36.1948 2.32675 35.7987 2.64675 35.4787C2.96675 35.1587 3.36231 34.9992 3.83342 35.0003H25.5001C25.9723 35.0003 26.3684 35.1603 26.6884 35.4803C27.0084 35.8003 27.1679 36.1959 27.1668 36.667C27.1668 37.1392 27.0068 37.5353 26.6868 37.8553C26.3668 38.1753 25.9712 38.3348 25.5001 38.3337H3.83342ZM30.5001 38.3337V25.0003C30.5001 21.8337 29.4168 19.0976 27.2501 16.792C25.0834 14.4864 22.4306 12.9448 19.2918 12.167L19.0418 10.2087C18.9862 9.70866 19.1251 9.27144 19.4584 8.897C19.7918 8.52255 20.2084 8.33478 20.7084 8.33366H27.1668V3.33366C27.1668 2.86144 27.3268 2.46533 27.6468 2.14533C27.9668 1.82533 28.3623 1.66589 28.8334 1.667C29.3056 1.667 29.7018 1.827 30.0218 2.147C30.3418 2.467 30.5012 2.86255 30.5001 3.33366V8.33366H37.0001C37.5001 8.33366 37.9168 8.51422 38.2501 8.87533C38.5834 9.23644 38.7223 9.667 38.6668 10.167L36.0001 36.8337C35.9445 37.2503 35.764 37.6048 35.4584 37.897C35.1529 38.1892 34.7779 38.3348 34.3334 38.3337H30.5001Z" fill="url(#paint0_linear_340_171)" fill-opacity="0.9"/>
<defs>
<linearGradient id="paint0_linear_340_171" x1="20.4227" y1="1.66699" x2="20.4227" y2="38.3337" gradientUnits="userSpaceOnUse">
<stop stop-color="#0861DD"/>
<stop offset="1" stop-color="#0861DD" stop-opacity="0.5"/>
</linearGradient>
</defs>
</svg>
