<svg width="41" height="40" viewBox="0 0 41 40" fill="none" xmlns="http://www.w3.org/2000/svg">
<path d="M2.16675 28.667C2.16675 27.7226 2.41008 26.8543 2.89675 26.062C3.38342 25.2698 4.02897 24.6659 4.83342 24.2504C6.55564 23.3893 8.30564 22.7431 10.0834 22.312C11.8612 21.8809 13.6668 21.6659 15.5001 21.667C17.3334 21.667 19.139 21.8826 20.9168 22.3137C22.6945 22.7448 24.4445 23.3904 26.1668 24.2504C26.9723 24.667 27.6184 25.2715 28.1051 26.0637C28.5918 26.8559 28.8345 27.7237 28.8334 28.667V30.0004C28.8334 30.917 28.5068 31.702 27.8534 32.3554C27.2001 33.0087 26.4156 33.3348 25.5001 33.3337H5.50008C4.58342 33.3337 3.79842 33.007 3.14508 32.3537C2.49175 31.7004 2.16564 30.9159 2.16675 30.0004V28.667ZM31.2501 33.3337C31.5556 32.8337 31.7851 32.2987 31.9384 31.7287C32.0918 31.1587 32.1679 30.5826 32.1668 30.0004V28.3337C32.1668 27.1115 31.8262 25.9376 31.1451 24.812C30.464 23.6865 29.499 22.7215 28.2501 21.917C29.6668 22.0837 31.0001 22.3687 32.2501 22.772C33.5001 23.1754 34.6668 23.6681 35.7501 24.2504C36.7501 24.8059 37.514 25.4237 38.0418 26.1037C38.5695 26.7837 38.8334 27.527 38.8334 28.3337V30.0004C38.8334 30.917 38.5073 31.702 37.8551 32.3554C37.2029 33.0087 36.4179 33.3348 35.5001 33.3337H31.2501ZM15.5001 20.0004C13.6668 20.0004 12.0973 19.3476 10.7918 18.042C9.4862 16.7365 8.83342 15.167 8.83342 13.3337C8.83342 11.5004 9.4862 9.93092 10.7918 8.62537C12.0973 7.31981 13.6668 6.66703 15.5001 6.66703C17.3334 6.66703 18.9029 7.31981 20.2084 8.62537C21.514 9.93092 22.1668 11.5004 22.1668 13.3337C22.1668 15.167 21.514 16.7365 20.2084 18.042C18.9029 19.3476 17.3334 20.0004 15.5001 20.0004ZM32.1668 13.3337C32.1668 15.167 31.514 16.7365 30.2084 18.042C28.9029 19.3476 27.3334 20.0004 25.5001 20.0004C25.1945 20.0004 24.8056 19.9654 24.3334 19.8954C23.8612 19.8254 23.4723 19.7493 23.1668 19.667C23.9168 18.7781 24.4934 17.792 24.8968 16.7087C25.3001 15.6254 25.5012 14.5004 25.5001 13.3337C25.5001 12.167 25.299 11.042 24.8968 9.9587C24.4945 8.87537 23.9179 7.88926 23.1668 7.00037C23.5556 6.86148 23.9445 6.77092 24.3334 6.7287C24.7223 6.68648 25.1112 6.66592 25.5001 6.66703C27.3334 6.66703 28.9029 7.31981 30.2084 8.62537C31.514 9.93092 32.1668 11.5004 32.1668 13.3337Z" fill="url(#paint0_linear_340_210)" fill-opacity="0.9"/>
<defs>
<linearGradient id="paint0_linear_340_210" x1="20.5001" y1="6.66699" x2="20.5001" y2="33.3337" gradientUnits="userSpaceOnUse">
<stop stop-color="#0861DD"/>
<stop offset="1" stop-color="#0861DD" stop-opacity="0.5"/>
</linearGradient>
</defs>
</svg>
