<svg width="41" height="40" viewBox="0 0 41 40" fill="none" xmlns="http://www.w3.org/2000/svg">
<path d="M28.8333 25.0003C27.6666 25.0003 26.6805 24.5975 25.8749 23.792C25.0694 22.9864 24.6666 22.0003 24.6666 20.8337C24.6666 19.667 25.0694 18.6809 25.8749 17.8753C26.6805 17.0698 27.6666 16.667 28.8333 16.667C29.9999 16.667 30.986 17.0698 31.7916 17.8753C32.5971 18.6809 32.9999 19.667 32.9999 20.8337C32.9999 22.0003 32.5971 22.9864 31.7916 23.792C30.986 24.5975 29.9999 25.0003 28.8333 25.0003ZM22.1666 33.3337C21.6944 33.3337 21.2983 33.1737 20.9783 32.8537C20.6583 32.5337 20.4988 32.1381 20.4999 31.667V31.0003C20.4999 30.3337 20.6738 29.7153 21.0216 29.1453C21.3694 28.5753 21.8621 28.1659 22.4999 27.917C23.4999 27.5003 24.5349 27.1875 25.6049 26.9787C26.6749 26.7698 27.751 26.6659 28.8333 26.667C29.9166 26.667 30.9933 26.7714 32.0633 26.9803C33.1333 27.1892 34.1677 27.5014 35.1666 27.917C35.8055 28.167 36.2988 28.577 36.6466 29.147C36.9944 29.717 37.1677 30.3348 37.1666 31.0003V31.667C37.1666 32.1392 37.0066 32.5353 36.6866 32.8553C36.3666 33.1753 35.971 33.3348 35.4999 33.3337H22.1666ZM17.1666 20.0003C15.3333 20.0003 13.7638 19.3475 12.4583 18.042C11.1527 16.7364 10.4999 15.167 10.4999 13.3337C10.4999 11.5003 11.1527 9.93088 12.4583 8.62533C13.7638 7.31977 15.3333 6.66699 17.1666 6.66699C18.9999 6.66699 20.5694 7.31977 21.8749 8.62533C23.1805 9.93088 23.8333 11.5003 23.8333 13.3337C23.8333 15.167 23.1805 16.7364 21.8749 18.042C20.5694 19.3475 18.9999 20.0003 17.1666 20.0003ZM3.83325 28.667C3.83325 27.7225 4.06937 26.8542 4.54159 26.062C5.01381 25.2698 5.66659 24.6659 6.49992 24.2503C8.16659 23.417 9.89548 22.7781 11.6866 22.3337C13.4777 21.8892 15.3044 21.667 17.1666 21.667C18.1388 21.667 19.111 21.7503 20.0833 21.917C21.0555 22.0837 22.0277 22.2781 22.9999 22.5003L20.1666 25.3337C19.4721 26.0281 18.7983 26.7364 18.1449 27.4587C17.4916 28.1809 17.1655 29.0281 17.1666 30.0003V31.6253C17.1666 31.9587 17.2294 32.2714 17.3549 32.5637C17.4805 32.8559 17.6816 33.1125 17.9583 33.3337H7.16659C6.24992 33.3337 5.46492 33.007 4.81159 32.3537C4.15825 31.7003 3.83214 30.9159 3.83325 30.0003V28.667Z" fill="url(#paint0_linear_236_155)" fill-opacity="0.9"/>
<defs>
<linearGradient id="paint0_linear_236_155" x1="20.4999" y1="6.66699" x2="20.4999" y2="33.3337" gradientUnits="userSpaceOnUse">
<stop stop-color="#0861DD"/>
<stop offset="1" stop-color="#0861DD" stop-opacity="0.5"/>
</linearGradient>
</defs>
</svg>
