<svg width="41" height="40" viewBox="0 0 41 40" fill="none" xmlns="http://www.w3.org/2000/svg">
<path d="M23.8334 21.667C22.4445 21.667 21.264 21.1809 20.2917 20.2087C19.3195 19.2364 18.8334 18.0559 18.8334 16.667C18.8334 15.2781 19.3195 14.0976 20.2917 13.1253C21.264 12.1531 22.4445 11.667 23.8334 11.667C25.2223 11.667 26.4029 12.1531 27.3751 13.1253C28.3473 14.0976 28.8334 15.2781 28.8334 16.667C28.8334 18.0559 28.3473 19.2364 27.3751 20.2087C26.4029 21.1809 25.2223 21.667 23.8334 21.667ZM12.1668 26.667C11.2501 26.667 10.4651 26.3403 9.81175 25.687C9.15842 25.0337 8.83231 24.2492 8.83342 23.3337V10.0003C8.83342 9.08366 9.16008 8.29866 9.81342 7.64533C10.4668 6.99199 11.2512 6.66588 12.1668 6.667H35.5001C36.4168 6.667 37.2018 6.99366 37.8551 7.64699C38.5084 8.30033 38.8345 9.08477 38.8334 10.0003V23.3337C38.8334 24.2503 38.5068 25.0353 37.8534 25.6887C37.2001 26.342 36.4156 26.6681 35.5001 26.667H12.1668ZM15.5001 23.3337H32.1667C32.1667 22.417 32.4934 21.632 33.1467 20.9787C33.8001 20.3253 34.5845 19.9992 35.5001 20.0003V13.3337C34.5834 13.3337 33.7984 13.007 33.1451 12.3537C32.4918 11.7003 32.1656 10.9159 32.1667 10.0003H15.5001C15.5001 10.917 15.1734 11.702 14.5201 12.3553C13.8668 13.0087 13.0823 13.3348 12.1668 13.3337V20.0003C13.0834 20.0003 13.8684 20.327 14.5218 20.9803C15.1751 21.6337 15.5012 22.4181 15.5001 23.3337ZM33.8334 33.3337H5.50008C4.58342 33.3337 3.79842 33.007 3.14508 32.3537C2.49175 31.7003 2.16564 30.9159 2.16675 30.0003V11.667H5.50008V30.0003H33.8334V33.3337Z" fill="url(#paint0_linear_236_201)" fill-opacity="0.9"/>
<defs>
<linearGradient id="paint0_linear_236_201" x1="20.5001" y1="6.66699" x2="20.5001" y2="33.3337" gradientUnits="userSpaceOnUse">
<stop stop-color="#0861DD"/>
<stop offset="1" stop-color="#0861DD" stop-opacity="0.5"/>
</linearGradient>
</defs>
</svg>
