<svg width="41" height="40" viewBox="0 0 41 40" fill="none" xmlns="http://www.w3.org/2000/svg">
<path d="M12.1668 36.6663C11.2501 36.6663 10.4651 36.3397 9.81175 35.6864C9.15842 35.033 8.83231 34.2486 8.83342 33.333C8.83342 32.4163 9.16009 31.6313 9.81342 30.978C10.4668 30.3247 11.2512 29.9986 12.1668 29.9997C13.0834 29.9997 13.8684 30.3263 14.5218 30.9797C15.1751 31.633 15.5012 32.4175 15.5001 33.333C15.5001 34.2497 15.1734 35.0347 14.5201 35.688C13.8668 36.3414 13.0823 36.6675 12.1668 36.6663ZM28.8334 36.6663C27.9168 36.6663 27.1318 36.3397 26.4784 35.6864C25.8251 35.033 25.499 34.2486 25.5001 33.333C25.5001 32.4163 25.8268 31.6313 26.4801 30.978C27.1334 30.3247 27.9179 29.9986 28.8334 29.9997C29.7501 29.9997 30.5351 30.3263 31.1884 30.9797C31.8418 31.633 32.1679 32.4175 32.1668 33.333C32.1668 34.2497 31.8401 35.0347 31.1868 35.688C30.5334 36.3414 29.749 36.6675 28.8334 36.6663ZM9.16675 6.66635H33.7501C34.389 6.66635 34.8751 6.95135 35.2084 7.52135C35.5418 8.09135 35.5556 8.66746 35.2501 9.24968L29.3334 19.9163C29.0279 20.4719 28.6179 20.9025 28.1034 21.208C27.589 21.5136 27.0268 21.6663 26.4168 21.6663H14.0001L12.1668 24.9997H30.5001C30.9723 24.9997 31.3684 25.1597 31.6884 25.4797C32.0084 25.7997 32.1679 26.1952 32.1668 26.6663C32.1668 27.1386 32.0068 27.5347 31.6868 27.8547C31.3668 28.1747 30.9712 28.3341 30.5001 28.333H12.1668C10.9168 28.333 9.97231 27.7841 9.33342 26.6863C8.69453 25.5886 8.66675 24.4986 9.25009 23.4163L11.5001 19.333L5.50009 6.66635H3.83342C3.3612 6.66635 2.96509 6.50635 2.64509 6.18635C2.32509 5.86635 2.16564 5.47079 2.16675 4.99968C2.16675 4.52746 2.32675 4.13135 2.64675 3.81135C2.96675 3.49135 3.36231 3.3319 3.83342 3.33301H6.54175C6.84731 3.33301 7.13898 3.41635 7.41675 3.58301C7.69453 3.74968 7.90287 3.98579 8.04175 4.29135L9.16675 6.66635Z" fill="url(#paint0_linear_1_439)" fill-opacity="0.9"/>
<defs>
<linearGradient id="paint0_linear_1_439" x1="18.818" y1="3.33301" x2="18.818" y2="36.6664" gradientUnits="userSpaceOnUse">
<stop stop-color="#0861DD"/>
<stop offset="1" stop-color="#0861DD" stop-opacity="0.5"/>
</linearGradient>
</defs>
</svg>
