<svg width="39" height="24" viewBox="0 0 39 24" fill="none" xmlns="http://www.w3.org/2000/svg">
<path d="M9.77125 23.288C8.02192 23.288 6.44325 22.84 5.03525 21.944C3.64858 21.048 2.54992 19.7467 1.73925 18.04C0.928584 16.3333 0.523251 14.2533 0.523251 11.8C0.523251 9.34667 0.928584 7.26667 1.73925 5.56C2.54992 3.85333 3.64858 2.552 5.03525 1.656C6.44325 0.759998 8.02192 0.311998 9.77125 0.311998C11.5206 0.311998 13.0886 0.759998 14.4753 1.656C15.8833 2.552 16.9926 3.85333 17.8033 5.56C18.6139 7.26667 19.0193 9.34667 19.0193 11.8C19.0193 14.2533 18.6139 16.3333 17.8033 18.04C16.9926 19.7467 15.8833 21.048 14.4753 21.944C13.0886 22.84 11.5206 23.288 9.77125 23.288ZM9.77125 20.024C10.8806 20.024 11.8513 19.7253 12.6833 19.128C13.5153 18.5307 14.1659 17.624 14.6353 16.408C15.1046 15.192 15.3393 13.656 15.3393 11.8C15.3393 9.944 15.1046 8.408 14.6353 7.192C14.1659 5.976 13.5153 5.06933 12.6833 4.472C11.8513 3.87466 10.8806 3.576 9.77125 3.576C8.68325 3.576 7.71258 3.87466 6.85925 4.472C6.02725 5.06933 5.37658 5.976 4.90725 7.192C4.43792 8.408 4.20325 9.944 4.20325 11.8C4.20325 13.656 4.43792 15.192 4.90725 16.408C5.37658 17.624 6.02725 18.5307 6.85925 19.128C7.71258 19.7253 8.68325 20.024 9.77125 20.024ZM22.6007 23V20.504L31.6248 11.896C32.3927 11.1707 32.9687 10.5307 33.3527 9.976C33.7367 9.4 33.9928 8.87733 34.1208 8.408C34.2488 7.91733 34.3127 7.45867 34.3127 7.032C34.3127 5.944 33.9288 5.10133 33.1608 4.504C32.4141 3.88533 31.3048 3.576 29.8328 3.576C28.6807 3.576 27.6354 3.768 26.6967 4.152C25.7794 4.536 24.9794 5.13333 24.2967 5.944L21.8007 3.8C22.6754 2.69067 23.8487 1.83733 25.3207 1.24C26.7927 0.621332 28.4034 0.311998 30.1528 0.311998C31.7527 0.311998 33.1394 0.567998 34.3127 1.08C35.4861 1.592 36.3928 2.328 37.0328 3.288C37.6728 4.22667 37.9928 5.34667 37.9928 6.648C37.9928 7.37333 37.8968 8.09867 37.7048 8.824C37.5127 9.528 37.1501 10.2747 36.6168 11.064C36.0834 11.8533 35.3048 12.7387 34.2808 13.72L26.4087 21.24L25.5767 19.832H38.8888V23H22.6007Z" fill="url(#paint0_linear_340_169)" fill-opacity="0.9"/>
<defs>
<linearGradient id="paint0_linear_340_169" x1="19.5" y1="1" x2="19.5" y2="23" gradientUnits="userSpaceOnUse">
<stop stop-color="#0861DD"/>
<stop offset="1" stop-color="#0861DD" stop-opacity="0.5"/>
</linearGradient>
</defs>
</svg>
