<svg width="32" height="32" viewBox="0 0 32 32" fill="none" xmlns="http://www.w3.org/2000/svg">
<path fill-rule="evenodd" clip-rule="evenodd" d="M8.94927 5.29333C13.6404 4.8739 18.3595 4.8739 23.0506 5.29333L25.0746 5.47466C26.0544 5.56215 26.9761 5.97743 27.6908 6.6534C28.4055 7.32937 28.8714 8.22656 29.0133 9.19999C29.6725 13.7094 29.6725 18.2906 29.0133 22.8C28.8711 23.7732 28.4051 24.6701 27.6904 25.3458C26.9758 26.0215 26.0542 26.4366 25.0746 26.524L23.0506 26.7053C18.3595 27.1248 13.6404 27.1248 8.94927 26.7053L6.92527 26.524C5.94564 26.4366 5.02408 26.0215 4.30943 25.3458C3.59477 24.6701 3.12874 23.7732 2.9866 22.8C2.32738 18.2906 2.32738 13.7094 2.9866 9.19999C3.12847 8.22656 3.59437 7.32937 4.30906 6.6534C5.02374 5.97743 5.94545 5.56215 6.92527 5.47466L8.94927 5.29333ZM7.80794 9.11999C7.65561 9.03785 7.48458 8.99664 7.31155 9.0004C7.13853 9.00415 6.96945 9.05275 6.82083 9.14144C6.67222 9.23012 6.54916 9.35586 6.4637 9.50635C6.37824 9.65684 6.3333 9.82693 6.33327 9.99999V22.6667C6.33327 22.9319 6.43863 23.1862 6.62616 23.3738C6.8137 23.5613 7.06805 23.6667 7.33327 23.6667C7.59849 23.6667 7.85284 23.5613 8.04038 23.3738C8.22791 23.1862 8.33327 22.9319 8.33327 22.6667V11.6747L15.5253 15.5467C15.8213 15.7067 16.1786 15.7067 16.4746 15.5467L23.6666 11.6747V22.6667C23.6666 22.9319 23.772 23.1862 23.9595 23.3738C24.147 23.5613 24.4014 23.6667 24.6666 23.6667C24.9318 23.6667 25.1862 23.5613 25.3737 23.3738C25.5612 23.1862 25.6666 22.9319 25.6666 22.6667V9.99999C25.6666 9.82693 25.6216 9.65684 25.5362 9.50635C25.4507 9.35586 25.3277 9.23012 25.179 9.14144C25.0304 9.05275 24.8613 9.00415 24.6883 9.0004C24.5153 8.99664 24.3443 9.03785 24.1919 9.11999L15.9999 13.5307L7.80794 9.11999Z" fill="url(#paint0_linear_408_162)" fill-opacity="0.9"/>
<defs>
<linearGradient id="paint0_linear_408_162" x1="15.9999" y1="4.97876" x2="15.9999" y2="27.0199" gradientUnits="userSpaceOnUse">
<stop stop-color="#0861DD" stop-opacity="0.9"/>
<stop offset="1" stop-color="#0861DD" stop-opacity="0.35"/>
</linearGradient>
</defs>
</svg>
