<svg width="32" height="32" viewBox="0 0 32 32" fill="none" xmlns="http://www.w3.org/2000/svg">
<path d="M16.0001 11.667C14.8508 11.667 13.7486 12.1235 12.936 12.9362C12.1233 13.7488 11.6667 14.851 11.6667 16.0003C11.6667 17.1496 12.1233 18.2518 12.936 19.0644C13.7486 19.8771 14.8508 20.3336 16.0001 20.3336C17.1494 20.3336 18.2516 19.8771 19.0642 19.0644C19.8769 18.2518 20.3334 17.1496 20.3334 16.0003C20.3334 14.851 19.8769 13.7488 19.0642 12.9362C18.2516 12.1235 17.1494 11.667 16.0001 11.667Z" fill="url(#paint0_linear_408_135)" fill-opacity="0.9"/>
<path fill-rule="evenodd" clip-rule="evenodd" d="M9.02659 4.10933C13.6613 3.5956 18.3386 3.5956 22.9733 4.10933C25.5053 4.392 27.5466 6.38533 27.8439 8.92666C28.3935 13.6262 28.3935 18.3738 27.8439 23.0733C27.5466 25.6147 25.5053 27.608 22.9746 27.892C18.3395 28.4059 13.6617 28.4059 9.02659 27.892C6.49459 27.608 4.45326 25.6147 4.15592 23.0747C3.60623 18.3747 3.60623 13.6266 4.15592 8.92666C4.45326 6.38533 6.49459 4.392 9.02659 4.10933ZM22.6666 8C22.313 8 21.9738 8.14047 21.7238 8.39052C21.4737 8.64057 21.3333 8.97971 21.3333 9.33333C21.3333 9.68695 21.4737 10.0261 21.7238 10.2761C21.9738 10.5262 22.313 10.6667 22.6666 10.6667C23.0202 10.6667 23.3594 10.5262 23.6094 10.2761C23.8594 10.0261 23.9999 9.68695 23.9999 9.33333C23.9999 8.97971 23.8594 8.64057 23.6094 8.39052C23.3594 8.14047 23.0202 8 22.6666 8ZM9.66659 16C9.66659 14.3203 10.3339 12.7094 11.5216 11.5217C12.7093 10.3339 14.3202 9.66666 15.9999 9.66666C17.6796 9.66666 19.2905 10.3339 20.4783 11.5217C21.666 12.7094 22.3333 14.3203 22.3333 16C22.3333 17.6797 21.666 19.2906 20.4783 20.4783C19.2905 21.6661 17.6796 22.3333 15.9999 22.3333C14.3202 22.3333 12.7093 21.6661 11.5216 20.4783C10.3339 19.2906 9.66659 17.6797 9.66659 16Z" fill="url(#paint1_linear_408_135)" fill-opacity="0.9"/>
<defs>
<linearGradient id="paint0_linear_408_135" x1="16.0001" y1="11.667" x2="16.0001" y2="20.3336" gradientUnits="userSpaceOnUse">
<stop stop-color="#0861DD" stop-opacity="0.9"/>
<stop offset="1" stop-color="#0861DD" stop-opacity="0.35"/>
</linearGradient>
<linearGradient id="paint1_linear_408_135" x1="15.9999" y1="3.72403" x2="15.9999" y2="28.2774" gradientUnits="userSpaceOnUse">
<stop stop-color="#0861DD" stop-opacity="0.9"/>
<stop offset="1" stop-color="#0861DD" stop-opacity="0.3"/>
</linearGradient>
</defs>
</svg>
