<svg width="24" height="24" viewBox="0 0 24 24" xmlns="http://www.w3.org/2000/svg">
<path fill-rule="evenodd" clip-rule="evenodd" d="M5.84008 9.85567C7.63083 13.7541 10.8126 16.8435 14.7621 18.5187L14.7741 18.5237L15.5381 18.8637C16.01 19.0741 16.5399 19.1157 17.0389 18.9815C17.5379 18.8473 17.9754 18.5455 18.2781 18.1267L19.5521 16.3637C19.5895 16.3117 19.6056 16.2474 19.5971 16.184C19.5885 16.1206 19.5559 16.0628 19.5061 16.0227L17.2821 14.2277C17.2558 14.2065 17.2256 14.1909 17.1931 14.1817C17.1607 14.1725 17.1267 14.17 17.0933 14.1743C17.0598 14.1786 17.0276 14.1896 16.9985 14.2067C16.9694 14.2238 16.9441 14.2466 16.9241 14.2737L16.0581 15.4417C15.9561 15.5795 15.8099 15.6782 15.6439 15.7213C15.478 15.7644 15.3023 15.7494 15.1461 15.6787C12.1871 14.3382 9.81652 11.9676 8.47608 9.00867C8.40538 8.85246 8.39035 8.67675 8.43347 8.5108C8.47659 8.34486 8.57528 8.1987 8.71308 8.09667L9.88008 7.22967C9.90719 7.20963 9.92998 7.18431 9.94705 7.15523C9.96413 7.12616 9.97515 7.09393 9.97945 7.06048C9.98374 7.02704 9.98123 6.99307 9.97206 6.96062C9.96289 6.92817 9.94725 6.89792 9.92608 6.87167L8.13208 4.64767C8.09194 4.5978 8.03419 4.56523 7.97075 4.55667C7.90731 4.54811 7.843 4.56422 7.79108 4.60167L6.01808 5.88167C5.59647 6.18578 5.29318 6.62649 5.15974 7.1289C5.0263 7.63132 5.07094 8.16444 5.28608 8.63767L5.84008 9.85467V9.85567ZM14.1701 19.8967C9.87918 18.0747 6.42268 14.717 4.47708 10.4807L4.47508 10.4787L3.92108 9.25867C3.5625 8.47011 3.48798 7.58172 3.7102 6.74444C3.93242 5.90716 4.43766 5.17264 5.14008 4.66567L6.91308 3.38567C7.27621 3.12359 7.72599 3.0107 8.16984 3.07022C8.61369 3.12975 9.01784 3.35717 9.29908 3.70567L11.0941 5.93067C11.2422 6.11424 11.3517 6.32587 11.416 6.55283C11.4802 6.77979 11.498 7.0174 11.4681 7.25138C11.4382 7.48537 11.3613 7.71089 11.242 7.91441C11.1228 8.11793 10.9636 8.29523 10.7741 8.43567L10.1041 8.93167C11.2369 11.128 13.0257 12.9169 15.2221 14.0497L15.7191 13.3797C15.8595 13.1903 16.0368 13.0313 16.2402 12.9121C16.4436 12.7929 16.669 12.7161 16.9029 12.6862C17.1368 12.6563 17.3743 12.674 17.6011 12.7382C17.828 12.8023 18.0395 12.9117 18.2231 13.0597L20.4481 14.8547C20.7969 15.1359 21.0245 15.5403 21.084 15.9844C21.1435 16.4285 21.0305 16.8785 20.7681 17.2417L19.4941 19.0057C18.9898 19.7036 18.2607 20.2067 17.4292 20.4305C16.5977 20.6543 15.7146 20.5852 14.9281 20.2347L14.1701 19.8967Z"/>
</svg>
