<svg width="31" height="24" viewBox="0 0 31 24" fill="none" xmlns="http://www.w3.org/2000/svg">
<path d="M10.0213 23.288C8.27192 23.288 6.69325 22.84 5.28525 21.944C3.89858 21.048 2.79992 19.7467 1.98925 18.04C1.17858 16.3333 0.773251 14.2533 0.773251 11.8C0.773251 9.34667 1.17858 7.26667 1.98925 5.56C2.79992 3.85333 3.89858 2.552 5.28525 1.656C6.69325 0.759998 8.27192 0.311998 10.0213 0.311998C11.7706 0.311998 13.3386 0.759998 14.7253 1.656C16.1333 2.552 17.2426 3.85333 18.0533 5.56C18.8639 7.26667 19.2693 9.34667 19.2693 11.8C19.2693 14.2533 18.8639 16.3333 18.0533 18.04C17.2426 19.7467 16.1333 21.048 14.7253 21.944C13.3386 22.84 11.7706 23.288 10.0213 23.288ZM10.0213 20.024C11.1306 20.024 12.1013 19.7253 12.9333 19.128C13.7653 18.5307 14.4159 17.624 14.8853 16.408C15.3546 15.192 15.5893 13.656 15.5893 11.8C15.5893 9.944 15.3546 8.408 14.8853 7.192C14.4159 5.976 13.7653 5.06933 12.9333 4.472C12.1013 3.87466 11.1306 3.576 10.0213 3.576C8.93325 3.576 7.96258 3.87466 7.10925 4.472C6.27725 5.06933 5.62658 5.976 5.15725 7.192C4.68792 8.408 4.45325 9.944 4.45325 11.8C4.45325 13.656 4.68792 15.192 5.15725 16.408C5.62658 17.624 6.27725 18.5307 7.10925 19.128C7.96258 19.7253 8.93325 20.024 10.0213 20.024ZM26.8507 23V2.04L28.4507 3.768H21.9547V0.599998H30.4987V23H26.8507Z" fill="url(#paint0_linear_1_455)" fill-opacity="0.9"/>
<defs>
<linearGradient id="paint0_linear_1_455" x1="16.5" y1="1" x2="16.5" y2="23" gradientUnits="userSpaceOnUse">
<stop stop-color="#0861DD"/>
<stop offset="1" stop-color="#0861DD" stop-opacity="0.5"/>
</linearGradient>
</defs>
</svg>
