<svg width="32" height="32" viewBox="0 0 32 32" fill="none" xmlns="http://www.w3.org/2000/svg">
<path d="M6.66657 13.1467C9.22638 18.7211 13.7748 23.1392 19.4212 25.536L20.3279 25.94C21.3319 26.3871 22.4616 26.4655 23.5177 26.1613C24.5739 25.8571 25.4888 25.19 26.1012 24.2773L27.2866 22.512C27.4721 22.2351 27.5471 21.8989 27.4971 21.5694C27.447 21.24 27.2753 20.9412 27.0159 20.732L22.9999 17.492C22.86 17.3792 22.6988 17.2959 22.526 17.247C22.3531 17.1981 22.1721 17.1846 21.9939 17.2074C21.8157 17.2302 21.644 17.2888 21.4889 17.3796C21.3339 17.4705 21.1989 17.5917 21.0919 17.736L19.8492 19.412C16.6594 17.8366 14.0774 15.2541 12.5026 12.064L14.1772 10.8213C14.3216 10.7143 14.4428 10.5793 14.5336 10.4243C14.6244 10.2693 14.683 10.0975 14.7058 9.91933C14.7286 9.74112 14.7151 9.56015 14.6662 9.38728C14.6173 9.2144 14.534 9.0532 14.4212 8.91333L11.1812 4.89733C10.972 4.63794 10.6733 4.46629 10.3438 4.41619C10.0144 4.36609 9.67809 4.44118 9.40124 4.62667L7.62391 5.81867C6.70577 6.43437 6.03603 7.35602 5.73398 8.41942C5.43193 9.48282 5.51719 10.6189 5.97457 11.6253L6.66657 13.1467Z" fill="url(#paint0_linear_1_506)" fill-opacity="0.9"/>
<defs>
<linearGradient id="paint0_linear_1_506" x1="16.5343" y1="4.40103" x2="16.5343" y2="26.3436" gradientUnits="userSpaceOnUse">
<stop stop-color="#0861DD" stop-opacity="0.9"/>
<stop offset="1" stop-color="#0861DD" stop-opacity="0.35"/>
</linearGradient>
</defs>
</svg>
