<svg width="32" height="32" viewBox="0 0 32 32" fill="none" xmlns="http://www.w3.org/2000/svg">
<path fill-rule="evenodd" clip-rule="evenodd" d="M24.644 26.3863V26.3836L24.668 26.3263L28.6667 6.16632V6.10232C28.6667 5.59965 28.48 5.16098 28.0774 4.89832C27.724 4.66765 27.3174 4.65165 27.032 4.67298C26.7664 4.697 26.5044 4.75067 26.2507 4.83298C26.1425 4.86786 26.0358 4.907 25.9307 4.95032L25.9134 4.95698L3.62004 13.7023L3.61338 13.705C3.5456 13.7281 3.47926 13.7553 3.41471 13.7863C3.25616 13.8575 3.10404 13.9423 2.96004 14.0396C2.67338 14.237 2.12804 14.701 2.22004 15.437C2.29604 16.0476 2.71604 16.4343 3.00004 16.6356C3.16768 16.7531 3.3479 16.8515 3.53738 16.929L3.58004 16.9476L3.59338 16.9516L3.60271 16.9556L7.50404 18.269C7.49071 18.513 7.51471 18.7623 7.58004 19.009L9.53338 26.421C9.64009 26.825 9.87067 27.1855 10.1927 27.4517C10.5148 27.718 10.9122 27.8767 11.3291 27.9055C11.746 27.9343 12.1614 27.8319 12.5171 27.6125C12.8727 27.3931 13.1507 27.0678 13.312 26.6823L16.3627 23.421L21.6014 27.437L21.676 27.469C22.152 27.677 22.596 27.7423 23.0027 27.6877C23.4094 27.6317 23.732 27.461 23.9747 27.2677C24.2554 27.0401 24.4791 26.7502 24.628 26.421L24.6387 26.3983L24.6427 26.3903L24.644 26.3863ZM9.51338 18.4996C9.49174 18.4174 9.49689 18.3304 9.52806 18.2513C9.55922 18.1722 9.6148 18.105 9.68671 18.0596L22.9147 9.65965C22.9147 9.65965 23.6934 9.18632 23.6654 9.65965C23.6654 9.65965 23.804 9.74232 23.3867 10.1303C22.992 10.4997 13.9587 19.221 13.044 20.1036C12.9932 20.153 12.9576 20.216 12.9414 20.285L11.4667 25.9116L9.51338 18.4983V18.4996Z" fill="url(#paint0_linear_408_176)" fill-opacity="0.9"/>
<defs>
<linearGradient id="paint0_linear_408_176" x1="15.4382" y1="4.66608" x2="15.4382" y2="27.9103" gradientUnits="userSpaceOnUse">
<stop stop-color="#0861DD" stop-opacity="0.9"/>
<stop offset="1" stop-color="#0861DD" stop-opacity="0.35"/>
</linearGradient>
</defs>
</svg>
