<svg width="41" height="40" viewBox="0 0 41 40" fill="none" xmlns="http://www.w3.org/2000/svg">
<path d="M13.8333 22.7497V11.6663C13.8333 11.1941 13.9933 10.798 14.3133 10.478C14.6333 10.158 15.0289 9.99857 15.5 9.99968H17.1667C17.6389 9.99968 18.035 10.1597 18.355 10.4797C18.675 10.7997 18.8344 11.1952 18.8333 11.6663V22.7497L18.625 22.5413C17.9861 21.9302 17.2222 21.6247 16.3333 21.6247C15.4444 21.6247 14.6806 21.9302 14.0417 22.5413L13.8333 22.7497ZM22.1667 25.2497V4.99968C22.1667 4.52746 22.3267 4.13135 22.6467 3.81135C22.9667 3.49135 23.3622 3.3319 23.8333 3.33301H25.5C25.9722 3.33301 26.3683 3.49301 26.6883 3.81301C27.0083 4.13301 27.1678 4.52857 27.1667 4.99968V20.2497L22.1667 25.2497ZM5.5 30.9997V18.333C5.5 17.8608 5.66 17.4647 5.98 17.1447C6.3 16.8247 6.69556 16.6652 7.16667 16.6663H8.83333C9.30556 16.6663 9.70167 16.8263 10.0217 17.1463C10.3417 17.4663 10.5011 17.8619 10.5 18.333V25.9997L5.5 30.9997ZM9.5 35.083C8.77778 35.083 8.27056 34.7425 7.97833 34.0613C7.68611 33.3802 7.80444 32.7763 8.33333 32.2497L15.1667 25.4163C15.4722 25.1108 15.8406 24.9441 16.2717 24.9163C16.7028 24.8886 17.0844 25.0275 17.4167 25.333L22.1667 29.4163L31.5 20.083H30.5C30.0278 20.083 29.6317 19.923 29.3117 19.603C28.9917 19.283 28.8322 18.8875 28.8333 18.4163C28.8333 17.9441 28.9933 17.548 29.3133 17.228C29.6333 16.908 30.0289 16.7486 30.5 16.7497H35.5C35.9722 16.7497 36.3683 16.9097 36.6883 17.2297C37.0083 17.5497 37.1678 17.9452 37.1667 18.4163V23.4163C37.1667 23.8886 37.0067 24.2847 36.6867 24.6047C36.3667 24.9247 35.9711 25.0841 35.5 25.083C35.0278 25.083 34.6317 24.923 34.3117 24.603C33.9917 24.283 33.8322 23.8875 33.8333 23.4163V22.4163L23.4167 32.833C23.1111 33.1386 22.7428 33.3052 22.3117 33.333C21.8806 33.3608 21.4989 33.2219 21.1667 32.9163L16.4167 28.833L10.6667 34.583C10.5278 34.7219 10.3544 34.8402 10.1467 34.938C9.93889 35.0358 9.72333 35.0841 9.5 35.083Z" fill="url(#paint0_linear_1_358)" fill-opacity="0.9"/>
<defs>
<linearGradient id="paint0_linear_1_358" x1="21.3333" y1="3.33301" x2="21.3333" y2="35.083" gradientUnits="userSpaceOnUse">
<stop stop-color="#0861DD"/>
<stop offset="1" stop-color="#0861DD" stop-opacity="0.5"/>
</linearGradient>
</defs>
</svg>
