<svg width="41" height="40" viewBox="0 0 41 40" fill="none" xmlns="http://www.w3.org/2000/svg">
<path d="M18.3335 21.2083L16.9168 19.0833C16.7779 18.8611 16.5835 18.6806 16.3335 18.5417C16.0835 18.4028 15.8196 18.3333 15.5418 18.3333H4.62516C4.31961 17.6111 4.11127 16.9167 4.00016 16.25C3.88905 15.5833 3.8335 14.8889 3.8335 14.1667C3.8335 11.5556 4.7085 9.375 6.4585 7.625C8.2085 5.875 10.3891 5 13.0002 5C14.4446 5 15.8196 5.30556 17.1252 5.91667C18.4307 6.52778 19.5557 7.38889 20.5002 8.5C21.4446 7.38889 22.5696 6.52778 23.8752 5.91667C25.1807 5.30556 26.5557 5 28.0002 5C30.6113 5 32.7918 5.875 34.5418 7.625C36.2918 9.375 37.1668 11.5556 37.1668 14.1667C37.1668 14.8889 37.1113 15.5833 37.0002 16.25C36.889 16.9167 36.6807 17.6111 36.3752 18.3333H26.4585L23.5835 14.0833C23.4168 13.8333 23.2018 13.6456 22.9385 13.52C22.6752 13.3944 22.3902 13.3322 22.0835 13.3333C21.7224 13.3333 21.4102 13.4378 21.1468 13.6467C20.8835 13.8556 20.6957 14.1261 20.5835 14.4583L18.3335 21.2083ZM20.5002 35.5833L18.0835 33.4167C15.1668 30.8056 12.7779 28.5694 10.9168 26.7083C9.05572 24.8472 7.59738 23.1667 6.54183 21.6667H14.5418L17.4168 25.9167C17.5835 26.1667 17.7991 26.3544 18.0635 26.48C18.3279 26.6056 18.6124 26.6678 18.9168 26.6667C19.2779 26.6667 19.5907 26.5622 19.8552 26.3533C20.1196 26.1444 20.3068 25.8739 20.4168 25.5417L22.6668 18.75L24.1252 20.9167C24.2641 21.1389 24.4585 21.3194 24.7085 21.4583C24.9585 21.5972 25.2224 21.6667 25.5002 21.6667H34.4585C33.4029 23.1667 31.9446 24.8472 30.0835 26.7083C28.2224 28.5694 25.8335 30.8056 22.9168 33.4167L20.5002 35.5833Z" fill="url(#paint0_linear_340_179)" fill-opacity="0.9"/>
<defs>
<linearGradient id="paint0_linear_340_179" x1="20.5002" y1="5" x2="20.5002" y2="35.5833" gradientUnits="userSpaceOnUse">
<stop stop-color="#0861DD"/>
<stop offset="1" stop-color="#0861DD" stop-opacity="0.5"/>
</linearGradient>
</defs>
</svg>
