<svg width="41" height="40" viewBox="0 0 41 40" fill="none" xmlns="http://www.w3.org/2000/svg">
<path d="M11.7499 16.6667H19.2499C19.5833 16.6667 19.8749 16.5417 20.1249 16.2917C20.3749 16.0417 20.4999 15.75 20.4999 15.4167C20.4999 15.0833 20.3749 14.7917 20.1249 14.5417C19.8749 14.2917 19.5833 14.1667 19.2499 14.1667H11.7499C11.4166 14.1667 11.1249 14.2917 10.8749 14.5417C10.6249 14.7917 10.4999 15.0833 10.4999 15.4167C10.4999 15.75 10.6249 16.0417 10.8749 16.2917C11.1249 16.5417 11.4166 16.6667 11.7499 16.6667ZM11.7499 12.5H19.2499C19.5833 12.5 19.8749 12.375 20.1249 12.125C20.3749 11.875 20.4999 11.5833 20.4999 11.25C20.4999 10.9167 20.3749 10.625 20.1249 10.375C19.8749 10.125 19.5833 10 19.2499 10H11.7499C11.4166 10 11.1249 10.125 10.8749 10.375C10.6249 10.625 10.4999 10.9167 10.4999 11.25C10.4999 11.5833 10.6249 11.875 10.8749 12.125C11.1249 12.375 11.4166 12.5 11.7499 12.5ZM28.8333 18.3333V8.33333H30.4999C31.4166 8.33333 32.2016 8.66 32.8549 9.31333C33.5083 9.96667 33.8344 10.7511 33.8333 11.6667H37.1666C37.6388 11.6667 38.0349 11.8267 38.3549 12.1467C38.6749 12.4667 38.8344 12.8622 38.8333 13.3333C38.8333 13.8056 38.6733 14.2017 38.3533 14.5217C38.0333 14.8417 37.6377 15.0011 37.1666 15H33.8333C33.8333 15.9167 33.5066 16.7017 32.8533 17.355C32.1999 18.0083 31.4155 18.3344 30.4999 18.3333H28.8333ZM20.4999 25.8333H10.4999V21.6667C8.66659 21.6667 7.09714 21.0139 5.79159 19.7083C4.48603 18.4028 3.83325 16.8333 3.83325 15V11.6667C3.83325 9.83333 4.48603 8.26389 5.79159 6.95833C7.09714 5.65278 8.66659 5 10.4999 5H23.8333C24.7499 5 25.5349 5.32667 26.1883 5.98C26.8416 6.63333 27.1677 7.41778 27.1666 8.33333V18.3333C27.1666 19.25 26.8399 20.035 26.1866 20.6883C25.5333 21.3417 24.7488 21.6678 23.8333 21.6667H20.4999V25.8333ZM9.66659 35C8.97214 35 8.38159 34.7567 7.89492 34.27C7.40825 33.7833 7.16547 33.1933 7.16659 32.5V30C7.16659 29.3056 7.40992 28.715 7.89659 28.2283C8.38325 27.7417 8.97325 27.4989 9.66659 27.5H21.3333C22.0277 27.5 22.6183 27.7433 23.1049 28.23C23.5916 28.7167 23.8344 29.3067 23.8333 30V32.5C23.8333 33.1944 23.5899 33.785 23.1033 34.2717C22.6166 34.7583 22.0266 35.0011 21.3333 35H9.66659Z" fill="url(#paint0_linear_340_206)" fill-opacity="0.9"/>
<defs>
<linearGradient id="paint0_linear_340_206" x1="21.3333" y1="5" x2="21.3333" y2="35" gradientUnits="userSpaceOnUse">
<stop stop-color="#0861DD"/>
<stop offset="1" stop-color="#0861DD" stop-opacity="0.5"/>
</linearGradient>
</defs>
</svg>
