<svg width="41" height="40" viewBox="0 0 41 40" fill="none" xmlns="http://www.w3.org/2000/svg">
<path d="M35.5 26.6664V16.833L22.0833 24.1247C21.5833 24.4025 21.0556 24.5414 20.5 24.5414C19.9445 24.5414 19.4167 24.4025 18.9167 24.1247L4.83335 16.458C4.52779 16.2914 4.31224 16.083 4.18668 15.833C4.06113 15.583 3.9989 15.3053 4.00001 14.9997C4.00001 14.6941 4.06279 14.4164 4.18835 14.1664C4.3139 13.9164 4.5289 13.708 4.83335 13.5414L18.9167 5.8747C19.1667 5.73581 19.4239 5.63137 19.6883 5.56137C19.9528 5.49137 20.2233 5.45692 20.5 5.45803C20.7778 5.45803 21.0489 5.49303 21.3133 5.56303C21.5778 5.63303 21.8345 5.73692 22.0833 5.8747L37.9584 14.5414C38.2361 14.6803 38.4517 14.8819 38.605 15.1464C38.7584 15.4108 38.8345 15.6953 38.8334 15.9997V26.6664C38.8334 27.1386 38.6734 27.5347 38.3534 27.8547C38.0334 28.1747 37.6378 28.3341 37.1667 28.333C36.6945 28.333 36.2984 28.173 35.9784 27.853C35.6584 27.533 35.4989 27.1375 35.5 26.6664ZM18.9167 34.1247L10.5833 29.6247C10.0278 29.3191 9.59724 28.9025 9.29168 28.3747C8.98613 27.8469 8.83335 27.2775 8.83335 26.6664V20.333L18.9167 25.7914C19.4167 26.0691 19.9445 26.208 20.5 26.208C21.0556 26.208 21.5833 26.0691 22.0833 25.7914L32.1667 20.333V26.6664C32.1667 27.2775 32.0139 27.8469 31.7084 28.3747C31.4028 28.9025 30.9722 29.3191 30.4167 29.6247L22.0833 34.1247C21.8333 34.2636 21.5767 34.368 21.3133 34.438C21.05 34.508 20.7789 34.5425 20.5 34.5414C20.2222 34.5414 19.9511 34.5064 19.6867 34.4364C19.4222 34.3664 19.1656 34.2625 18.9167 34.1247Z" fill="url(#paint0_linear_340_199)" fill-opacity="0.9"/>
<defs>
<linearGradient id="paint0_linear_340_199" x1="21.4167" y1="5.45801" x2="21.4167" y2="34.5414" gradientUnits="userSpaceOnUse">
<stop stop-color="#0861DD"/>
<stop offset="1" stop-color="#0861DD" stop-opacity="0.5"/>
</linearGradient>
</defs>
</svg>
