<svg width="41" height="40" viewBox="0 0 41 40" fill="none" xmlns="http://www.w3.org/2000/svg">
<path d="M21.1666 36.6663L24.7916 33.333C27.7638 30.5552 29.736 28.4369 30.7083 26.978C31.6805 25.5191 32.1666 23.9575 32.1666 22.293C32.1666 21.5708 32.0694 20.8902 31.8749 20.2513C31.6805 19.6125 31.3888 18.973 30.9999 18.333H33.8333C34.7499 18.333 35.5349 18.6597 36.1883 19.313C36.8416 19.9663 37.1677 20.7508 37.1666 21.6663V34.9997C37.1666 35.4719 37.0066 35.868 36.6866 36.188C36.3666 36.508 35.971 36.6674 35.4999 36.6663H21.1666ZM3.83326 34.9997V21.6663C3.83326 20.7497 4.1527 19.9647 4.79159 19.3113C5.43048 18.658 6.22215 18.3319 7.16659 18.333H9.95826C9.59715 18.9163 9.31937 19.548 9.12493 20.228C8.93048 20.908 8.83326 21.5958 8.83326 22.2913C8.83326 23.958 9.29881 25.5208 10.2299 26.9797C11.161 28.4386 13.1399 30.5563 16.1666 33.333L19.8333 36.6663H5.49992C5.0277 36.6663 4.63159 36.5063 4.31159 36.1863C3.99159 35.8663 3.83215 35.4708 3.83326 34.9997ZM32.1666 16.6663C30.7499 16.6663 29.5621 16.1869 28.6033 15.228C27.6444 14.2691 27.1655 13.0819 27.1666 11.6663C27.1666 10.2775 27.646 9.0969 28.6049 8.12467C29.5638 7.15245 30.751 6.66634 32.1666 6.66634C33.5555 6.66634 34.736 7.15245 35.7083 8.12467C36.6805 9.0969 37.1666 10.2775 37.1666 11.6663C37.1666 13.083 36.6805 14.2708 35.7083 15.2297C34.736 16.1886 33.5555 16.6675 32.1666 16.6663ZM20.4999 14.9997C18.861 14.9997 17.4788 14.4375 16.3533 13.313C15.2277 12.1886 14.6655 10.8063 14.6666 9.16634C14.6666 7.55523 15.2288 6.18023 16.3533 5.04134C17.4777 3.90245 18.8599 3.33301 20.4999 3.33301C22.111 3.33301 23.486 3.90245 24.6249 5.04134C25.7638 6.18023 26.3333 7.55523 26.3333 9.16634C26.3333 10.8052 25.7638 12.1875 24.6249 13.313C23.486 14.4386 22.111 15.0008 20.4999 14.9997ZM12.1666 22.2913C12.1666 23.4302 12.7221 24.708 13.8333 26.1247C14.9444 27.5413 17.1527 29.7497 20.4583 32.7497C23.736 29.8052 25.9516 27.618 27.1049 26.188C28.2583 24.758 28.8344 23.4591 28.8333 22.2913C28.8333 21.1802 28.4583 20.2425 27.7083 19.478C26.9583 18.7136 26.0555 18.3319 24.9999 18.333C24.361 18.333 23.7638 18.4858 23.2083 18.7913C22.6527 19.0969 22.1666 19.4719 21.7499 19.9163L20.4583 21.2497L19.2083 19.958C18.8194 19.5413 18.3749 19.1663 17.8749 18.833C17.3749 18.4997 16.7499 18.333 15.9999 18.333C14.861 18.333 13.9371 18.7152 13.2283 19.4797C12.5194 20.2441 12.1655 21.1808 12.1666 22.2897V22.2913ZM8.83326 16.6663C7.41659 16.6663 6.22881 16.1869 5.26992 15.228C4.31104 14.2691 3.83215 13.0819 3.83326 11.6663C3.83326 10.2775 4.3127 9.0969 5.27159 8.12467C6.23048 7.15245 7.4177 6.66634 8.83326 6.66634C10.2221 6.66634 11.4027 7.15245 12.3749 8.12467C13.3471 9.0969 13.8333 10.2775 13.8333 11.6663C13.8333 13.083 13.3471 14.2708 12.3749 15.2297C11.4027 16.1886 10.2221 16.6675 8.83326 16.6663Z" fill="url(#paint0_linear_340_220)" fill-opacity="0.9"/>
<defs>
<linearGradient id="paint0_linear_340_220" x1="20.4999" y1="3.33301" x2="20.4999" y2="36.6663" gradientUnits="userSpaceOnUse">
<stop stop-color="#0861DD"/>
<stop offset="1" stop-color="#0861DD" stop-opacity="0.5"/>
</linearGradient>
</defs>
</svg>
