<svg width="39" height="24" viewBox="0 0 39 24" fill="none" xmlns="http://www.w3.org/2000/svg">
<path d="M9.94313 23.288C8.19379 23.288 6.61513 22.84 5.20713 21.944C3.82046 21.048 2.72179 19.7467 1.91113 18.04C1.10046 16.3333 0.695126 14.2533 0.695126 11.8C0.695126 9.34667 1.10046 7.26667 1.91113 5.56C2.72179 3.85333 3.82046 2.552 5.20713 1.656C6.61513 0.759998 8.19379 0.311998 9.94313 0.311998C11.6925 0.311998 13.2605 0.759998 14.6471 1.656C16.0551 2.552 17.1645 3.85333 17.9751 5.56C18.7858 7.26667 19.1911 9.34667 19.1911 11.8C19.1911 14.2533 18.7858 16.3333 17.9751 18.04C17.1645 19.7467 16.0551 21.048 14.6471 21.944C13.2605 22.84 11.6925 23.288 9.94313 23.288ZM9.94313 20.024C11.0525 20.024 12.0231 19.7253 12.8551 19.128C13.6871 18.5307 14.3378 17.624 14.8071 16.408C15.2765 15.192 15.5111 13.656 15.5111 11.8C15.5111 9.944 15.2765 8.408 14.8071 7.192C14.3378 5.976 13.6871 5.06933 12.8551 4.472C12.0231 3.87466 11.0525 3.576 9.94313 3.576C8.85513 3.576 7.88446 3.87466 7.03113 4.472C6.19913 5.06933 5.54846 5.976 5.07913 7.192C4.60979 8.408 4.37513 9.944 4.37513 11.8C4.37513 13.656 4.60979 15.192 5.07913 16.408C5.54846 17.624 6.19913 18.5307 7.03113 19.128C7.88446 19.7253 8.85513 20.024 9.94313 20.024ZM29.7241 23.288C28.1455 23.288 26.6095 23.0533 25.1161 22.584C23.6228 22.1147 22.3748 21.464 21.3721 20.632L23.0361 17.72C23.8255 18.4027 24.8068 18.9573 25.9801 19.384C27.1535 19.8107 28.3908 20.024 29.6921 20.024C31.2708 20.024 32.4975 19.6933 33.3721 19.032C34.2681 18.3707 34.7161 17.4853 34.7161 16.376C34.7161 15.288 34.3001 14.424 33.4681 13.784C32.6361 13.1227 31.3135 12.792 29.5001 12.792H27.5801V10.2L34.0761 2.328L34.6201 3.768H22.4601V0.599998H37.5001V3.096L31.0041 10.968L29.0521 9.816H30.2041C32.9348 9.816 34.9828 10.4347 36.3481 11.672C37.7135 12.888 38.3961 14.4453 38.3961 16.344C38.3961 17.6027 38.0761 18.7653 37.4361 19.832C36.8175 20.8773 35.8681 21.72 34.5881 22.36C33.3081 22.9787 31.6868 23.288 29.7241 23.288Z" fill="url(#paint0_linear_340_85)" fill-opacity="0.9"/>
<defs>
<linearGradient id="paint0_linear_340_85" x1="19.5" y1="1" x2="19.5" y2="23" gradientUnits="userSpaceOnUse">
<stop stop-color="#0861DD"/>
<stop offset="1" stop-color="#0861DD" stop-opacity="0.5"/>
</linearGradient>
</defs>
</svg>
