<svg width="41" height="40" viewBox="0 0 41 40" fill="none" xmlns="http://www.w3.org/2000/svg">
<path d="M10.5001 33.3337C8.19453 33.3337 6.22897 32.5209 4.60342 30.8953C2.97786 29.2698 2.16564 27.3048 2.16675 25.0003C2.16675 22.6948 2.97953 20.7292 4.60508 19.1037C6.23064 17.4781 8.19564 16.6659 10.5001 16.667C12.8056 16.667 14.7712 17.4798 16.3968 19.1053C18.0223 20.7309 18.8345 22.6959 18.8334 25.0003C18.8334 27.3059 18.0206 29.2714 16.3951 30.897C14.7695 32.5225 12.8045 33.3348 10.5001 33.3337ZM10.5001 27.5003C9.80564 27.5003 9.21508 27.257 8.72842 26.7703C8.24175 26.2837 7.99897 25.6937 8.00008 25.0003C8.00008 24.3059 8.24342 23.7153 8.73008 23.2287C9.21675 22.742 9.80675 22.4992 10.5001 22.5003C11.1945 22.5003 11.7851 22.7437 12.2717 23.2303C12.7584 23.717 13.0012 24.307 13.0001 25.0003C13.0001 25.6948 12.7567 26.2853 12.2701 26.772C11.7834 27.2587 11.1934 27.5014 10.5001 27.5003ZM33.0001 33.3337C31.389 33.3337 30.014 32.7642 28.8751 31.6253C27.7362 30.4864 27.1667 29.1114 27.1667 27.5003C27.1667 25.8892 27.7362 24.5142 28.8751 23.3753C30.014 22.2364 31.389 21.667 33.0001 21.667C34.6112 21.667 35.9862 22.2364 37.1251 23.3753C38.264 24.5142 38.8334 25.8892 38.8334 27.5003C38.8334 29.1114 38.264 30.4864 37.1251 31.6253C35.9862 32.7642 34.6112 33.3337 33.0001 33.3337ZM7.16675 15.0003C6.69453 15.0003 6.29842 14.8403 5.97842 14.5203C5.65842 14.2003 5.49897 13.8048 5.50008 13.3337C5.50008 12.8614 5.66008 12.4653 5.98008 12.1453C6.30008 11.8253 6.69564 11.6659 7.16675 11.667H12.1667C13.0834 11.667 13.8684 11.9937 14.5217 12.647C15.1751 13.3003 15.5012 14.0848 15.5001 15.0003H7.16675ZM10.5001 30.0003C11.889 30.0003 13.0695 29.5142 14.0417 28.542C15.014 27.5698 15.5001 26.3892 15.5001 25.0003C15.5001 23.6114 15.014 22.4309 14.0417 21.4587C13.0695 20.4864 11.889 20.0003 10.5001 20.0003C9.11119 20.0003 7.93064 20.4864 6.95842 21.4587C5.98619 22.4309 5.50008 23.6114 5.50008 25.0003C5.50008 26.3892 5.98619 27.5698 6.95842 28.542C7.93064 29.5142 9.11119 30.0003 10.5001 30.0003ZM33.0001 30.0003C33.6945 30.0003 34.2851 29.757 34.7717 29.2703C35.2584 28.7837 35.5012 28.1937 35.5001 27.5003C35.5001 26.8059 35.2567 26.2153 34.7701 25.7287C34.2834 25.242 33.6934 24.9992 33.0001 25.0003C32.3056 25.0003 31.7151 25.2437 31.2284 25.7303C30.7418 26.217 30.499 26.807 30.5001 27.5003C30.5001 28.1948 30.7434 28.7853 31.2301 29.272C31.7167 29.7587 32.3067 30.0014 33.0001 30.0003ZM20.3334 26.667H25.5834C25.8612 24.667 26.729 23.0698 28.1868 21.8753C29.6445 20.6809 31.2906 20.0837 33.1251 20.0837C33.8195 20.0837 34.5073 20.1809 35.1884 20.3753C35.8695 20.5698 36.529 20.8614 37.1667 21.2503V13.3337C37.1667 12.417 36.8401 11.632 36.1868 10.9787C35.5334 10.3253 34.749 9.99921 33.8334 10.0003H23.3334L21.5834 8.16699L23.9168 5.83366L22.7501 4.66699L16.8334 10.5837L18.0834 11.7503L20.4167 9.41699L22.1667 11.167V15.0003C22.1667 15.917 21.8406 16.702 21.1884 17.3553C20.5362 18.0087 19.7512 18.3348 18.8334 18.3337H17.9167C18.7501 19.2503 19.3818 20.2781 19.8118 21.417C20.2418 22.5559 20.4573 23.7503 20.4584 25.0003C20.4584 25.2781 20.4512 25.5559 20.4368 25.8337C20.4223 26.1114 20.3879 26.3892 20.3334 26.667Z" fill="url(#paint0_linear_340_165)" fill-opacity="0.9"/>
<defs>
<linearGradient id="paint0_linear_340_165" x1="20.5001" y1="4.66699" x2="20.5001" y2="33.3337" gradientUnits="userSpaceOnUse">
<stop stop-color="#0861DD"/>
<stop offset="1" stop-color="#0861DD" stop-opacity="0.5"/>
</linearGradient>
</defs>
</svg>
