<svg width="41" height="40" viewBox="0 0 41 40" fill="none" xmlns="http://www.w3.org/2000/svg">
<path d="M28.0002 36.667C25.4724 36.667 23.3124 35.7709 21.5202 33.9787C19.7279 32.1864 18.8324 30.027 18.8335 27.5003V25.0003H37.1668V27.5003C37.1668 30.0281 36.2779 32.1881 34.5002 33.9803C32.7224 35.7726 30.5557 36.6681 28.0002 36.667ZM7.16683 33.3337C6.25017 33.3337 5.46517 33.007 4.81183 32.3537C4.1585 31.7003 3.83239 30.9159 3.8335 30.0003V10.0003C3.8335 9.08366 4.16017 8.29866 4.8135 7.64533C5.46683 6.99199 6.25128 6.66588 7.16683 6.667H33.8335C34.7502 6.667 35.5352 6.99366 36.1885 7.64699C36.8418 8.30033 37.1679 9.08477 37.1668 10.0003V14.0003C35.9724 12.7226 34.5835 11.7364 33.0002 11.042C31.4168 10.3476 29.7502 10.0003 28.0002 10.0003C24.5279 10.0003 21.5763 11.2159 19.1452 13.647C16.7141 16.0781 15.4991 19.0292 15.5002 22.5003V27.5003C15.5002 28.5281 15.6185 29.5353 15.8552 30.522C16.0918 31.5087 16.4457 32.4459 16.9168 33.3337H7.16683ZM18.8335 21.667C18.9168 19.5837 19.6668 17.7848 21.0835 16.2703C22.5002 14.7559 24.2502 13.8187 26.3335 13.4587V21.667H18.8335ZM29.6668 21.667V13.4587C31.7502 13.8198 33.5002 14.7576 34.9168 16.272C36.3335 17.7864 37.0835 19.5848 37.1668 21.667H29.6668Z" fill="url(#paint0_linear_340_216)" fill-opacity="0.9"/>
<defs>
<linearGradient id="paint0_linear_340_216" x1="20.5002" y1="6.66699" x2="20.5002" y2="36.667" gradientUnits="userSpaceOnUse">
<stop stop-color="#0861DD"/>
<stop offset="1" stop-color="#0861DD" stop-opacity="0.5"/>
</linearGradient>
</defs>
</svg>
