<svg width="85" height="40" viewBox="0 0 85 40" fill="none" xmlns="http://www.w3.org/2000/svg">
<path d="M22.3831 0H18.2714L12.5072 12.6191H16.6396L20.2627 4.51614L20.2601 4.51491L22.3831 0Z" fill="#0861DD"/>
<path d="M24.0142 12.6191L22.5322 9.30457L24.5888 4.70513L28.2037 12.6191H24.0142Z" fill="#0861DD"/>
<path d="M0 40L5.43791 28.0952H9.68464L9.10028 29.4804L4.39655 40H0Z" fill="#0861DD"/>
<path d="M31.8275 30.0929L31.0466 28.0952H35.273L40.7109 40H36.2573L31.8275 30.0929Z" fill="#0861DD"/>
<path d="M51.5976 28.0952V40H55.8229V28.0952H51.5976Z" fill="#0861DD"/>
<path d="M55.8229 7.56372L59.8274 12.6191H65.0974L55.0806 0H51.5976V12.6191H55.8229V7.56372Z" fill="#0861DD"/>
<path d="M72.0868 28.0952L81.517 40H85V28.0952H80.8318V32.441L77.3822 28.0952H72.0868Z" fill="#0861DD"/>
<path d="M85 12.6191H80.8318V0H85V12.6191Z" fill="#0861DD"/>
<path fill-rule="evenodd" clip-rule="evenodd" d="M7.60831 23.9286L10.625 17.2619H11.5671L14.5933 23.9286H13.5941L12.8623 22.2619H9.32032L8.58849 23.9286H7.60831ZM11.0913 18.2287L12.5277 21.5H9.65487L11.0913 18.2287Z" fill="#0861DD"/>
<path d="M17.4427 23.7762C17.9058 23.9286 18.3912 24.0048 18.8987 24.0048C19.4824 24.0048 19.9645 23.9191 20.3452 23.7476C20.7322 23.5698 21.0177 23.3381 21.2017 23.0524C21.3856 22.7603 21.4776 22.446 21.4776 22.1095C21.4776 21.7603 21.4047 21.4746 21.2588 21.2524C21.1128 21.0302 20.9193 20.8524 20.6783 20.7191C20.4435 20.5857 20.1802 20.4778 19.8884 20.3952C19.6029 20.3127 19.3174 20.2397 19.0319 20.1762C18.7464 20.1064 18.4832 20.0302 18.2421 19.9476C18.0073 19.8651 17.8138 19.754 17.6616 19.6143C17.5157 19.4746 17.4427 19.2873 17.4427 19.0524C17.4427 18.8556 17.4966 18.6778 17.6045 18.5191C17.7187 18.3603 17.8963 18.2333 18.1374 18.1381C18.3785 18.0429 18.6862 17.9952 19.0605 17.9952C19.3587 17.9952 19.6664 18.0397 19.9836 18.1286C20.3008 18.2111 20.6021 18.3476 20.8876 18.5381L21.2017 17.7762C20.9225 17.5857 20.5926 17.4397 20.212 17.3381C19.8313 17.2365 19.4475 17.1857 19.0605 17.1857C18.4768 17.1857 17.9947 17.2746 17.614 17.4524C17.2397 17.6238 16.9605 17.8556 16.7766 18.1476C16.5989 18.4333 16.5101 18.7476 16.5101 19.0905C16.5101 19.446 16.5831 19.7381 16.729 19.9667C16.8749 20.1889 17.0652 20.3667 17.3 20.5C17.541 20.6333 17.8043 20.7444 18.0898 20.8333C18.3817 20.9159 18.6703 20.9889 18.9558 21.0524C19.2413 21.1159 19.5014 21.1921 19.7361 21.281C19.9772 21.3635 20.1707 21.4746 20.3166 21.6143C20.4689 21.754 20.545 21.9381 20.545 22.1667C20.545 22.3635 20.4879 22.5413 20.3737 22.7C20.2595 22.8524 20.0819 22.973 19.8408 23.0619C19.5997 23.1508 19.2857 23.1952 18.8987 23.1952C18.4736 23.1952 18.0644 23.1222 17.6711 22.9762C17.2778 22.8302 16.9542 22.646 16.7004 22.4238L16.3483 23.1667C16.6148 23.4143 16.9796 23.6175 17.4427 23.7762Z" fill="#0861DD"/>
<path d="M25.4681 23.9286V18.0905H23.1842V17.2619H28.6942V18.0905H26.4102V23.9286H25.4681Z" fill="#0861DD"/>
<path fill-rule="evenodd" clip-rule="evenodd" d="M31.101 17.2619V23.9286H32.0526V21.9H33.6989C33.8453 21.9 33.9863 21.8942 34.122 21.8826L35.5546 23.9286H36.5919L35.0116 21.6969C35.0738 21.6744 35.1343 21.65 35.193 21.6238C35.6054 21.4397 35.9226 21.1762 36.1446 20.8333C36.3667 20.4841 36.4777 20.0683 36.4777 19.5857C36.4777 19.1032 36.3667 18.6873 36.1446 18.3381C35.9226 17.9889 35.6054 17.7222 35.193 17.5381C34.7806 17.354 34.2826 17.2619 33.6989 17.2619H31.101ZM32.0526 21.0905H33.6704C34.2794 21.0905 34.7394 20.9603 35.0503 20.7C35.3675 20.4333 35.5261 20.0619 35.5261 19.5857C35.5261 19.1095 35.3675 18.7413 35.0503 18.481C34.7394 18.2206 34.2794 18.0905 33.6704 18.0905H32.0526V21.0905Z" fill="#0861DD"/>
<path fill-rule="evenodd" clip-rule="evenodd" d="M38.3768 23.9286L41.3935 17.2619H42.3356L45.3618 23.9286H44.3626L43.6308 22.2619H40.0888L39.357 23.9286H38.3768ZM41.8598 18.2287L43.2962 21.5H40.4234L41.8598 18.2287Z" fill="#0861DD"/>
<path d="M51.6519 17.2619V23.9286H52.6035V18.961L56.6004 23.9286H57.3807V17.2619H56.4291V22.2295L52.4322 17.2619H51.6519Z" fill="#0861DD"/>
<path d="M63.5047 24.0048C62.6292 24.0048 61.9409 23.754 61.4397 23.2524C60.9385 22.7508 60.6879 22.0175 60.6879 21.0524V17.2619H61.6395V21.0143C61.6395 21.7571 61.8013 22.3 62.1249 22.6429C62.4548 22.9857 62.9179 23.1571 63.5142 23.1571C64.1169 23.1571 64.5801 22.9857 64.9036 22.6429C65.2335 22.3 65.3985 21.7571 65.3985 21.0143V17.2619H66.3216V21.0524C66.3216 22.0175 66.071 22.7508 65.5698 23.2524C65.0749 23.754 64.3866 24.0048 63.5047 24.0048Z" fill="#0861DD"/>
<path d="M68.6342 17.2619L71.5652 23.9286H72.5073L75.4288 17.2619H74.4772L72.0611 22.7427L69.6619 17.2619H68.6342Z" fill="#0861DD"/>
<path fill-rule="evenodd" clip-rule="evenodd" d="M80.5908 24.0048C80.0833 24.0048 79.6106 23.9191 79.1729 23.7476C78.7415 23.5762 78.3671 23.3381 78.0499 23.0333C77.7327 22.7222 77.4853 22.3603 77.3077 21.9476C77.13 21.5349 77.0412 21.0841 77.0412 20.5952C77.0412 20.1064 77.13 19.6556 77.3077 19.2429C77.4853 18.8302 77.7327 18.4714 78.0499 18.1667C78.3671 17.8556 78.7415 17.6143 79.1729 17.4429C79.6043 17.2714 80.0769 17.1857 80.5908 17.1857C81.0983 17.1857 81.5647 17.2714 81.9897 17.4429C82.4211 17.6079 82.7954 17.846 83.1126 18.1571C83.4362 18.4619 83.6836 18.8206 83.8549 19.2333C84.0325 19.646 84.1214 20.1 84.1214 20.5952C84.1214 21.0905 84.0325 21.5444 83.8549 21.9571C83.6836 22.3698 83.4362 22.7318 83.1126 23.0429C82.7954 23.3476 82.4211 23.5857 81.9897 23.7571C81.5647 23.9222 81.0983 24.0048 80.5908 24.0048ZM80.5908 23.1571C80.9588 23.1571 81.2982 23.0937 81.6091 22.9667C81.9263 22.8397 82.1991 22.6619 82.4275 22.4333C82.6622 22.1984 82.843 21.9254 82.9699 21.6143C83.1031 21.3032 83.1697 20.9635 83.1697 20.5952C83.1697 20.227 83.1031 19.8873 82.9699 19.5762C82.843 19.2651 82.6622 18.9952 82.4275 18.7667C82.1991 18.5318 81.9263 18.3508 81.6091 18.2238C81.2982 18.0968 80.9588 18.0333 80.5908 18.0333C80.2165 18.0333 79.8707 18.0968 79.5535 18.2238C79.2427 18.3508 78.9699 18.5318 78.7351 18.7667C78.5004 18.9952 78.3164 19.2651 78.1832 19.5762C78.0563 19.8873 77.9928 20.227 77.9928 20.5952C77.9928 20.9635 78.0563 21.3032 78.1832 21.6143C78.3164 21.9254 78.5004 22.1984 78.7351 22.4333C78.9699 22.6619 79.2427 22.8397 79.5535 22.9667C79.8707 23.0937 80.2165 23.1571 80.5908 23.1571Z" fill="#0861DD"/>
</svg>
